<svg height="48" viewBox="0 0 24 24" width="48" xmlns="http://www.w3.org/2000/svg"><g fill="none" fill-rule="evenodd"><path d="m0 0h24v24h-24z" fill-rule="nonzero"/><g stroke="#0c0310" stroke-linecap="round" stroke-width="2"><path d="m4 9c0-1.10457.89543-2 2-2h2l.44721-.89443c.33879-.67757 1.03131-1.10557 1.78889-1.10557h3.5278c.7576 0 1.4501.428 1.7889 1.10557l.4472.89443h2c1.1046 0 2 .89543 2 2v8c0 1.1046-.8954 2-2 2h-12c-1.10457 0-2-.8954-2-2z"/><path d="m15 13c0 1.6569-1.3431 3-3 3s-3-1.3431-3-3 1.3431-3 3-3 3 1.3431 3 3z"/></g></g></svg>